<svg width="203" height="47" viewBox="0 0 203 47" fill="none" xmlns="http://www.w3.org/2000/svg">
<g clip-path="url(#clip0_3_51)">
<path d="M22 2C18.0444 2 14.1776 3.17298 10.8886 5.37061C7.59962 7.56824 5.03617 10.6918 3.52242 14.3463C2.00867 18.0009 1.6126 22.0222 2.3843 25.9018C3.15601 29.7814 5.06082 33.3451 7.85787 36.1421C10.6549 38.9392 14.2186 40.844 18.0982 41.6157C21.9778 42.3874 25.9992 41.9913 29.6537 40.4776C33.3082 38.9638 36.4318 36.4004 38.6294 33.1114C40.827 29.8224 42 25.9556 42 22C42 16.6957 39.8929 11.6086 36.1421 7.85786C32.3914 4.10714 27.3043 2 22 2V2ZM36.4 34.88C35.7962 35.5557 35.1466 36.1892 34.456 36.776C30.9695 39.7135 26.5591 41.3281 22 41.336C20.8027 41.3375 19.608 41.225 18.432 41C18.096 40.944 17.768 40.872 17.44 40.792C17.112 40.712 16.784 40.624 16.464 40.528C13.0753 39.4978 10.0324 37.5615 7.66401 34.928C10.4469 37.411 13.8644 39.0727 17.536 39.728C18.8006 39.956 20.083 40.0712 21.368 40.072C22.5305 40.0689 23.6912 39.978 24.84 39.8C28.8268 39.1825 32.5573 37.449 35.6 34.8C37.1911 33.4091 38.5425 31.7658 39.6 29.936C38.7889 31.736 37.71 33.4029 36.4 34.88ZM36.288 8.984C35.7795 8.51974 35.2453 8.08439 34.688 7.68C33.5177 6.84635 32.2595 6.14349 30.936 5.584C27.2246 4.02431 23.1489 3.54188 19.176 4.192C14.0381 4.95709 9.36493 7.59575 6.05601 11.6C5.43454 12.3552 4.87284 13.1576 4.37601 14C5.69685 11.0808 7.723 8.53589 10.272 6.59449C12.821 4.6531 15.8129 3.37615 18.9781 2.87862C22.1434 2.3811 25.3827 2.67862 28.4044 3.7444C31.4261 4.81018 34.1353 6.61076 36.288 8.984ZM3.09601 21.048C3.35949 19.6702 3.8174 18.3369 4.45601 17.088C6.80001 12.52 11.312 8.912 16.896 7.2C19.1392 6.50187 21.4747 6.14587 23.824 6.144C24.512 6.144 25.192 6.176 25.864 6.24C27.8313 6.416 29.7631 6.87402 31.6 7.6C30.2967 7.20052 28.9567 6.93251 27.6 6.8C27.136 6.752 26.664 6.72 26.184 6.704C22.1898 6.60555 18.2263 7.42669 14.6 9.104C8.89601 11.704 4.72001 15.976 3.16801 20.816L3.09601 21.048ZM40.904 22.952C40.7069 23.9753 40.4039 24.9753 40 25.936C39.856 26.264 39.704 26.584 39.544 26.904C37.2 31.48 32.688 35.088 27.104 36.8C25.1421 37.4095 23.1088 37.7591 21.056 37.84H20.184C17.4946 37.8682 14.8249 37.3793 12.32 36.4C14.3603 37.0084 16.479 37.313 18.608 37.304C22.3319 37.2755 26.0075 36.4575 29.392 34.904C31.2825 34.055 33.0635 32.9806 34.696 31.704C37.5292 29.5373 39.663 26.5857 40.832 23.216C40.832 23.176 40.832 23.136 40.872 23.096C40.912 23.056 40.896 22.992 40.904 22.952ZM4.67201 29.392C4.45239 28.6655 4.33922 27.911 4.33601 27.152C4.28801 23.048 7.12801 18.352 11.928 14.68C15.2665 12.1086 19.1103 10.2712 23.208 9.288C18.4914 10.7425 14.1759 13.2699 10.6 16.672C6.26401 20.832 4.04801 25.584 4.67201 29.392ZM39.328 14.608C39.5476 15.3345 39.6608 16.089 39.664 16.848C39.712 20.952 36.872 25.648 32.072 29.32C31.648 29.648 31.224 29.96 30.784 30.256C27.7478 32.3464 24.3525 33.8597 20.768 34.72C24.5904 33.5516 28.161 31.6795 31.296 29.2C32.024 28.616 32.728 28.008 33.4 27.36C37.736 23.168 39.952 18.416 39.328 14.608ZM5.26401 29.328C4.65601 25.712 6.80001 21.136 11.008 17.096C11.8715 16.2778 12.7824 15.5111 13.736 14.8C15.8468 13.218 18.144 11.9015 20.576 10.88C17.7964 12.2364 15.2174 13.9701 12.912 16.032C11.8756 16.9603 10.9028 17.9573 10 19.016C6.34401 23.336 4.81601 27.88 5.89601 31.176L5.94401 31.312C5.61098 30.692 5.3813 30.0219 5.26401 29.328ZM38.464 13.608C38.4676 13.6292 38.4676 13.6508 38.464 13.672C38.5692 13.9912 38.652 14.3173 38.712 14.648C39.32 18.264 37.176 22.84 32.96 26.88C32.456 27.368 31.92 27.84 31.36 28.304C28.9394 30.2823 26.2447 31.8991 23.36 33.104C26.6677 31.5088 29.6896 29.3788 32.304 26.8C32.904 26.208 33.464 25.592 34 24.96C37.656 20.64 39.184 16.096 38.104 12.8L38.056 12.664C38.219 12.9663 38.3555 13.2822 38.464 13.608ZM35.8 11.112C35.9529 11.3281 36.0893 11.5554 36.208 11.792C37.488 14.376 36.584 18.368 33.808 22.48C32.0299 25.0519 29.8721 27.3393 27.408 29.264C28.2748 28.4867 29.0999 27.6642 29.88 26.8C31.5727 24.9939 33.0296 22.9805 34.216 20.808C36.44 16.648 36.808 12.928 35.24 10.616C35.1363 10.4585 35.0214 10.3088 34.896 10.168C35.2415 10.4372 35.546 10.7552 35.8 11.112ZM31.456 9.264C32.0576 9.45339 32.6058 9.78234 33.056 10.224L33.24 10.416C34.752 12.128 34.784 15.216 33.336 18.864C32.3405 21.2836 30.9926 23.5428 29.336 25.568C31.1285 23.1567 32.4825 20.4487 33.336 17.568C34.264 14.032 33.832 11.256 32.12 9.752C31.9161 9.56691 31.6936 9.40337 31.456 9.264ZM22 30.592C21.8308 30.6225 21.6598 30.6412 21.488 30.648H21.232C20.2893 30.6443 19.3715 30.3449 18.608 29.792C17.6777 29.1016 16.9508 28.1729 16.504 27.104C17.1868 28.3327 18.2472 29.3089 19.528 29.888C20.2129 30.1824 20.9505 30.3348 21.696 30.336C22.4261 30.3337 23.1488 30.1897 23.824 29.912C23.4148 30.1532 22.9767 30.3414 22.52 30.472C22.368 30.528 22.192 30.56 22 30.592ZM17.464 30C16.6302 29.0403 16.0547 27.8839 15.792 26.64C16.2487 28.0648 17.1379 29.3119 18.336 30.208C19.1826 30.8301 20.2054 31.1664 21.256 31.168C21.7373 31.1628 22.2159 31.0956 22.68 30.968L22.88 30.904C22.3333 31.1788 21.7433 31.3575 21.136 31.432C20.4537 31.5084 19.7631 31.418 19.1235 31.1686C18.4839 30.9192 17.9144 30.5181 17.464 30ZM23.864 29.36C23.2195 29.6659 22.5171 29.8306 21.8038 29.843C21.0905 29.8554 20.3828 29.7153 19.728 29.432C16.648 28.096 15.04 23.904 16.08 19.888C16.16 19.592 16.248 19.304 16.344 19.032C16.9629 17.1309 18.3089 15.552 20.088 14.64C20.768 14.3267 21.5073 14.163 22.256 14.16H22.76C23.2652 14.2098 23.7594 14.3394 24.224 14.544C25.0959 14.9325 25.8595 15.5285 26.448 16.28C27.2611 17.3902 27.8118 18.6705 28.0584 20.0243C28.3051 21.3782 28.2414 22.7703 27.872 24.096C27.792 24.384 27.704 24.672 27.608 24.944C27.0003 26.8498 25.6629 28.4375 23.888 29.36H23.864ZM22.72 13.36C22.9505 13.3584 23.1808 13.3772 23.408 13.416C24.1064 13.5297 24.7691 13.8035 25.344 14.216C25.6616 14.4518 25.9538 14.7199 26.216 15.016C26.7298 15.5807 27.1461 16.2268 27.448 16.928C26.7629 15.7011 25.7033 14.7255 24.424 14.144C23.74 13.8465 23.0019 13.694 22.256 13.696C21.5231 13.6962 20.7974 13.8403 20.12 14.12C20.5321 13.879 20.9729 13.6909 21.432 13.56C21.8572 13.4275 22.2988 13.3548 22.744 13.344L22.72 13.36ZM26.512 14.016C27.3458 14.9757 27.9213 16.1321 28.184 17.376C27.7273 15.9512 26.8381 14.7041 25.64 13.808C24.7929 13.1869 23.7704 12.8507 22.72 12.848H22.368C22.0056 12.8749 21.6466 12.9365 21.296 13.032L21.096 13.096C21.6423 12.8201 22.2324 12.6414 22.84 12.568C23.5261 12.4875 24.2215 12.5759 24.8656 12.8255C25.5098 13.0751 26.0832 13.4783 26.536 14L26.512 14.016ZM27.696 14.016C28.3831 15.2418 28.7723 16.612 28.832 18.016C28.612 16.4241 27.937 14.9295 26.888 13.712C26.4718 13.2405 25.9662 12.8562 25.4004 12.5816C24.8346 12.3069 24.2199 12.1473 23.592 12.112H23.344C23.16 12.112 22.976 12.112 22.784 12.112L22.328 12.192H22.232C22.8789 11.9183 23.5781 11.79 24.28 11.816C24.9932 11.8521 25.6848 12.0723 26.2876 12.455C26.8904 12.8377 27.3839 13.37 27.72 14L27.696 14.016ZM15.936 29.352C15.4728 28.3049 15.2019 27.183 15.136 26.04C15.356 27.6319 16.0311 29.1265 17.08 30.344C17.5867 30.9189 18.2236 31.3642 18.9376 31.6426C19.6516 31.9209 20.4219 32.0243 21.184 31.944C21.368 31.944 21.56 31.888 21.744 31.848C21.0942 32.1216 20.3925 32.2499 19.688 32.224C18.9764 32.1785 18.2887 31.9498 17.6916 31.5601C17.0944 31.1705 16.6082 30.633 16.28 30C16.1517 29.7915 16.0368 29.5751 15.936 29.352ZM25.752 11.128C26.5026 11.3092 27.1908 11.6883 27.7452 12.2258C28.2995 12.7632 28.6997 13.4394 28.904 14.184C29.2626 15.2402 29.4438 16.3486 29.44 17.464C29.44 17.864 29.44 18.264 29.44 18.696C29.4687 16.9585 29.0441 15.2434 28.208 13.72C27.8338 13.0138 27.2838 12.416 26.6111 11.9844C25.9385 11.5528 25.1659 11.3019 24.368 11.256H24.152C23.9575 11.2444 23.7625 11.2444 23.568 11.256C24.2748 11.0364 25.0244 10.9925 25.752 11.128ZM15.096 29.816C14.6165 28.3606 14.4475 26.8208 14.6 25.296C14.5703 27.0362 14.995 28.7541 15.832 30.28C16.2062 30.9862 16.7562 31.584 17.4289 32.0156C18.1015 32.4472 18.8741 32.6981 19.672 32.744C19.9381 32.7679 20.2059 32.7679 20.472 32.744C19.7527 32.9812 18.9858 33.0362 18.24 32.904C17.4871 32.7188 16.7978 32.3344 16.2446 31.791C15.6915 31.2477 15.2947 30.5655 15.096 29.816ZM29.816 19.776C30.1317 17.8441 29.9864 15.865 29.392 14C28.704 12.104 27.48 10.928 25.856 10.616C25.5716 10.5582 25.2822 10.5287 24.992 10.528H24.928C25.6914 10.3548 26.4873 10.3908 27.232 10.632C28.672 11.128 29.672 12.544 30.032 14.632C30.287 16.3448 30.2137 18.0906 29.816 19.776ZM19.064 33.472C18.88 33.472 18.704 33.536 18.528 33.552C17.935 33.6228 17.3336 33.56 16.768 33.368C15.32 32.872 14.328 31.456 13.968 29.368C13.7099 27.6446 13.7832 25.8879 14.184 24.192C13.8644 26.1343 14.0097 28.1247 14.608 30C15.296 31.896 16.52 33.072 18.144 33.384L18.368 33.424C18.5986 33.4564 18.8312 33.4725 19.064 33.472ZM15.28 33.712C13.792 32.96 12.952 31.192 12.88 28.712C12.88 28.392 12.88 28.064 12.88 27.728C13.0058 26.1497 13.3393 24.595 13.872 23.104C13.4586 24.5837 13.2434 26.1117 13.232 27.648C13.232 27.776 13.232 27.904 13.232 28.024C13.232 28.28 13.248 28.528 13.28 28.768C13.28 29.016 13.336 29.248 13.376 29.48C13.776 31.744 14.896 33.304 16.536 33.872C16.8387 33.978 17.1529 34.0478 17.472 34.08C16.7214 34.1621 15.9627 34.0348 15.28 33.712ZM28.72 10.288C30.208 11.04 31.048 12.808 31.12 15.288C31.1023 17.1989 30.7587 19.0927 30.104 20.888C30.7221 18.814 30.8885 16.6317 30.592 14.488C30.192 12.224 29.072 10.664 27.392 10.096C27.0868 9.98921 26.7699 9.91938 26.448 9.888C27.228 9.80136 28.0165 9.94017 28.72 10.288ZM13.76 33.88C12.24 32.848 11.6 30.68 11.976 27.784C12.2869 25.6912 12.9268 23.6608 13.872 21.768C12.9912 23.8485 12.4925 26.0706 12.4 28.328C12.4 28.456 12.4 28.592 12.4 28.72C12.4 31.408 13.384 33.352 15.056 34.192C15.363 34.3468 15.6882 34.4623 16.024 34.536C15.2206 34.5497 14.4317 34.3211 13.76 33.88ZM30.24 10.12C31.76 11.152 32.4 13.32 32.024 16.216C31.7142 18.309 31.0742 20.3396 30.128 22.232C31.0669 20.0327 31.567 17.6711 31.6 15.28C31.6 15.112 31.6 14.944 31.6 14.784C31.456 12.384 30.528 10.6 28.96 9.808C28.6493 9.65541 28.3217 9.53995 27.984 9.464C28.7847 9.45191 29.5706 9.68044 30.24 10.12ZM10.624 25.136C11.6213 22.7172 12.9691 20.4584 14.624 18.432C12.8457 20.8462 11.5053 23.554 10.664 26.432C9.73601 29.968 10.16 32.744 11.88 34.248C12.0832 34.4257 12.3029 34.5838 12.536 34.72C11.8369 34.509 11.2088 34.1106 10.72 33.568C9.20001 31.872 9.20001 28.792 10.624 25.136ZM12.224 33.848C10.696 32.512 10.32 29.848 11.184 26.592C11.288 26.2 11.408 25.792 11.544 25.408C12.1769 23.5817 13.0227 21.8364 14.064 20.208C12.9096 22.266 12.0786 24.4893 11.6 26.8C11.544 27.104 11.496 27.4 11.464 27.696C11.056 30.808 11.776 33.16 13.48 34.312C13.7287 34.4871 13.9972 34.6321 14.28 34.744C13.5281 34.6472 12.82 34.3361 12.24 33.848H12.224ZM31.76 10.152C33.28 11.488 33.664 14.152 32.8 17.408C32.1637 19.6727 31.193 21.8298 29.92 23.808C31.2538 21.4902 32.1488 18.9463 32.56 16.304C32.968 13.192 32.248 10.84 30.544 9.688C30.2926 9.51512 30.0246 9.36773 29.744 9.248C30.4876 9.35409 31.1862 9.66737 31.76 10.152ZM8.56001 31.464C8.56001 31.296 8.48801 31.12 8.45601 30.944C8.42401 30.768 8.40001 30.584 8.40001 30.4C8.26401 28.448 8.91201 26.048 10.296 23.44C11.6987 20.8878 13.4697 18.5561 15.552 16.52C13.8086 18.4177 12.3114 20.5277 11.096 22.8C10.7259 23.5012 10.3948 24.2223 10.104 24.96C8.57601 28.816 8.64801 32.104 10.304 33.976C10.4686 34.1633 10.6478 34.3372 10.84 34.496C10.1922 34.1682 9.64075 33.6775 9.24001 33.072C8.91132 32.5832 8.67539 32.0382 8.54401 31.464H8.56001ZM35.408 12.264C36.024 14.392 35.456 17.312 33.736 20.536C33.488 20.992 33.232 21.44 32.936 21.896C31.668 23.9301 30.1672 25.8094 28.464 27.496C30.2029 25.5924 31.6947 23.4771 32.904 21.2C33.2741 20.4988 33.6052 19.7777 33.896 19.04C35.424 15.184 35.352 11.896 33.696 10.024C33.5307 9.83468 33.3486 9.66064 33.152 9.504C33.8009 9.83025 34.3527 10.3213 34.752 10.928C35.0354 11.3449 35.2514 11.8039 35.392 12.288L35.408 12.264ZM10.216 21.52C11.9941 18.9481 14.1519 16.6607 16.616 14.736C14.0193 16.9849 11.8086 19.6441 10.072 22.608C9.96001 22.8 9.85601 22.984 9.76001 23.176C7.60001 27.336 7.19201 31.056 8.76001 33.368C8.86563 33.5266 8.98049 33.6789 9.10401 33.824C8.55316 33.3948 8.10494 32.8482 7.79201 32.224C6.51201 29.624 7.41601 25.632 10.216 21.52ZM36.552 11.216C36.8802 11.6098 37.1497 12.049 37.352 12.52C37.4216 12.6794 37.483 12.8423 37.536 13.008C38.56 16.104 37.064 20.44 33.536 24.608C31.268 27.2443 28.5847 29.4925 25.592 31.264C28.9855 29.0085 31.9269 26.1378 34.264 22.8C37.2 18.456 38.12 14.352 36.72 11.536C36.672 11.432 36.608 11.32 36.552 11.216ZM6.45601 30.992C5.43201 27.896 6.92801 23.56 10.456 19.392C12.7254 16.7602 15.4053 14.5126 18.392 12.736C15.0055 14.9946 12.07 17.865 9.73601 21.2C6.80001 25.544 5.88001 29.648 7.28001 32.464C7.32801 32.568 7.39201 32.68 7.44801 32.784C7.00268 32.2577 6.66557 31.6488 6.45601 30.992ZM40.272 16.968C40.3135 17.289 40.3349 17.6123 40.336 17.936C40.3497 18.4982 40.3123 19.0606 40.224 19.616C39.552 24.072 36.024 28.632 30.784 31.816C26.8878 34.1945 22.4622 35.569 17.904 35.816C23.199 35.1371 28.2169 33.0575 32.44 29.792C33.7614 28.7773 34.983 27.6388 36.088 26.392C36.32 26.128 36.544 25.864 36.76 25.592L37.072 25.192C38.9958 22.8664 40.1181 19.9823 40.272 16.968ZM3.77601 24.4C4.44801 19.928 7.97601 15.368 13.2 12.184C17.0847 9.80589 21.4999 8.4313 26.048 8.184C24.6377 8.34419 23.2417 8.61163 21.872 8.984C18.1496 10.0592 14.6643 11.829 11.6 14.2C11.296 14.44 10.992 14.68 10.704 14.92C6.30401 18.584 3.73601 23.04 3.72801 27.032C3.62596 26.1565 3.6421 25.2712 3.77601 24.4ZM40.24 22.992C38.736 27.664 34.688 31.792 29.128 34.328C28.984 34.4027 28.84 34.4667 28.696 34.52C25.4716 35.9298 21.9911 36.6597 18.472 36.664C17.3176 36.6658 16.1647 36.5775 15.024 36.4C15.488 36.4427 15.952 36.4667 16.416 36.472H16.888C21.9107 36.4082 26.8228 34.9873 31.104 32.36C36.496 29.08 40.128 24.36 40.832 19.736C40.7818 20.843 40.5827 21.9382 40.24 22.992ZM19.28 4.84C20.3939 4.66204 21.52 4.5711 22.648 4.568H23.448C27.2189 4.70634 30.875 5.90105 34 8.016C32.2827 7.07751 30.4361 6.39816 28.52 6C24.5987 5.18399 20.5337 5.38504 16.712 6.584C10.96 8.4 6.28801 12.08 3.88801 16.8C3.72801 17.12 3.57601 17.44 3.44001 17.76C4.10958 15.6662 5.16808 13.7174 6.56001 12.016C9.76816 8.13505 14.2992 5.57884 19.28 4.84ZM3.76001 21.008C5.26401 16.336 9.31201 12.208 14.872 9.672C18.173 8.15615 21.7596 7.36247 25.392 7.344C26.5542 7.33913 27.7151 7.42472 28.864 7.6C27.2288 7.4779 25.5853 7.52616 23.96 7.744C20.0403 8.26013 16.2717 9.5899 12.896 11.648C7.50401 14.928 3.87201 19.648 3.16801 24.272C3.21749 23.1623 3.41662 22.0644 3.76001 21.008ZM24.72 39.16C19.5359 40.0314 14.2157 38.8647 9.87201 35.904C13.0298 37.639 16.5812 38.5316 20.184 38.496C22.5924 38.4901 24.9866 38.1261 27.288 37.416C33.04 35.64 37.688 31.92 40.088 27.2C40.232 26.928 40.36 26.648 40.48 26.4C39.6462 28.9127 38.2635 31.2083 36.432 33.12C33.2904 36.3556 29.1778 38.4765 24.72 39.16Z" fill="white"/>
</g>
<path d="M67.1562 26.8828H67.8945L66.9277 33H50.1406V32.2617H51.4414C52.0391 32.2617 52.3379 31.9688 52.3379 31.3828V9.32227C52.3262 8.75977 52.0273 8.47852 51.4414 8.47852H50.1406V7.74023H66.9277L67.8945 13.8574H67.1562C66.5 10.2715 65.123 8.47852 63.0254 8.47852H57.0664C56.4688 8.49023 56.1699 8.7832 56.1699 9.35742V18.9551H62.6738C63.2012 18.8848 63.5996 18.5859 63.8691 18.0586C64.1387 17.5195 64.2734 16.7051 64.2734 15.6152H64.9941V23.0332L64.2734 23.0156C64.2734 21.9375 64.1387 21.1289 63.8691 20.5898C63.5996 20.0508 63.2012 19.752 62.6738 19.6934H56.1699V31.3828C56.1699 31.9688 56.4688 32.2617 57.0664 32.2617H63.0254C65.1348 32.2617 66.5117 30.4688 67.1562 26.8828ZM69.2129 16.4238V15.8613L74.2578 14.1211H74.9961V28.6406C75.0078 31.0547 75.6641 32.2793 76.9648 32.3145C78.4297 32.2676 80.1465 31.5938 82.1152 30.293V17.25C82.0918 16.6992 81.8164 16.4238 81.2891 16.4238H80.1641V15.8789L85.209 14.1211H85.9473V31.3477C85.959 31.9336 86.2578 32.2266 86.8438 32.2266H88.1445V32.9648H83.1875C82.4727 32.9648 82.1152 32.5957 82.1152 31.8574V31.0664C79.8652 32.5547 77.7031 33.3164 75.6289 33.3516C72.6758 33.3398 71.1875 31.9102 71.1641 29.0625V17.1973C71.1172 16.6934 70.8359 16.4355 70.3203 16.4238H69.2129ZM89.7441 32.2617H91.0273C91.625 32.2617 91.9238 31.9277 91.9238 31.2598V17.6543C91.9121 17.1035 91.6367 16.8281 91.0977 16.8281H89.9727V16.1953L95.0352 14.5254H95.7559V16.248C96.4238 15.1113 97.3027 14.5312 98.3926 14.5078C98.8496 14.5078 99.4648 14.6484 100.238 14.9297C101.023 15.2109 101.574 15.3516 101.891 15.3516C102.137 15.3281 102.26 15.0762 102.26 14.5957L102.998 14.5781L103.789 20.8008H103.139C101.404 17.2734 99.7227 15.4629 98.0938 15.3691C97.1562 15.3926 96.377 16.1602 95.7559 17.6719V31.3828C95.7559 31.9688 96.0605 32.2617 96.6699 32.2617H97.9531V33H89.7441V32.2617ZM113.914 14.877C111.453 14.9473 110.105 17.3672 109.871 22.1367H117.676C117.582 17.3203 116.328 14.9004 113.914 14.877ZM113.879 14.1211C116.293 14.1562 118.221 14.9707 119.662 16.5645C121.115 18.1465 121.842 20.2559 121.842 22.8926L109.871 22.8574C110.047 29.0801 111.594 32.3145 114.512 32.5605C117.254 32.5254 119.34 30.8203 120.77 27.4453H121.578C120.102 31.3828 117.541 33.3516 113.896 33.3516C112.408 33.3398 111.031 32.9062 109.766 32.0508C108.512 31.1953 107.498 30.041 106.725 28.5879C105.951 27.123 105.564 25.5059 105.564 23.7363C105.564 21.9668 105.945 20.3555 106.707 18.9023C107.48 17.4492 108.494 16.2891 109.748 15.4219C111.014 14.5547 112.391 14.1211 113.879 14.1211ZM123.564 32.2617H124.848C125.457 32.2617 125.762 31.9688 125.762 31.3828V9.86719C125.703 9.36328 125.422 9.11133 124.918 9.11133H123.811V8.49609L128.855 6.82617H129.594V22.8047L136.854 15.7734C137.076 15.5508 137.105 15.4043 136.941 15.334C136.777 15.252 136.414 15.2109 135.852 15.2109H134.674V14.4727H141.406V15.2109L139.754 15.2285C139.473 15.2285 139.186 15.2812 138.893 15.3867C138.6 15.4805 138.236 15.7266 137.803 16.125L133.918 19.7988L139.49 30.6445C139.83 31.1836 140.135 31.5879 140.404 31.8574C140.686 32.1152 141.049 32.25 141.494 32.2617H142.777V33H137.82C137.27 33 136.848 32.918 136.555 32.7539C136.273 32.5781 136.004 32.2441 135.746 31.752L131.633 23.4727C131.434 23.1797 131.229 23.0332 131.018 23.0332C130.854 23.0332 130.707 23.0801 130.578 23.1738C130.449 23.2676 130.291 23.4023 130.104 23.5781L129.594 24.0879V31.3828C129.594 31.9688 129.893 32.2617 130.49 32.2617H131.773V33H123.564V32.2617ZM151.057 31.8574C151.842 31.8574 152.551 31.6465 153.184 31.2246C153.828 30.791 154.291 30.1523 154.572 29.3086V22.8574C150.096 23.0918 147.816 24.9082 147.734 28.3066C147.758 30.6621 148.865 31.8457 151.057 31.8574ZM151.812 14.1035C156.09 14.1035 158.234 15.791 158.246 19.166V31.4004C158.246 31.9629 158.539 32.2441 159.125 32.2441H160.32V33H155.539C154.906 32.9883 154.584 32.6191 154.572 31.8926V30.75C154.244 31.3008 153.729 31.8516 153.025 32.4023C152.334 32.9414 151.238 33.2578 149.738 33.3516C145.848 33.3398 143.885 31.6348 143.85 28.2363C143.896 24.1582 147.471 22.1191 154.572 22.1191V19.2363C154.561 16.3418 153.518 14.8828 151.443 14.8594C149.135 14.8594 147.125 16.623 145.414 20.1504L144.641 20.1328L145.836 14.4727H146.592C146.592 14.8359 146.668 15.0293 146.82 15.0527C147.043 15.0527 147.635 14.9004 148.596 14.5957C149.557 14.291 150.629 14.127 151.812 14.1035Z" fill="white"/>
<rect x="163" y="2" width="38" height="16" rx="4" fill="#1F1F1F"/>
<path d="M170.252 11.7617L173.516 4.95898H174.852V14.0527H173.398V8.79688L170.92 14.0527H169.584L167.117 8.83789V14.0527H165.664V4.95898H167L170.252 11.7617ZM179.533 6.75781H179.539C180.242 6.75781 180.848 6.91797 181.355 7.23828C181.867 7.55859 182.26 7.99219 182.533 8.53906C182.811 9.08594 182.949 9.70117 182.949 10.3848C182.949 11.0645 182.811 11.6777 182.533 12.2246C182.26 12.7715 181.867 13.2051 181.355 13.5254C180.848 13.8457 180.24 14.0059 179.533 14.0059C178.83 14.0059 178.223 13.8457 177.711 13.5254C177.199 13.2051 176.805 12.7715 176.527 12.2246C176.254 11.6777 176.117 11.0645 176.117 10.3848C176.117 9.70117 176.254 9.08594 176.527 8.53906C176.805 7.99219 177.199 7.55859 177.711 7.23828C178.223 6.91797 178.83 6.75781 179.533 6.75781ZM179.533 12.5469H179.539C180.199 12.5469 180.682 12.3613 180.986 11.9902C181.291 11.6191 181.443 11.084 181.443 10.3848C181.443 9.68164 181.291 9.14453 180.986 8.77344C180.682 8.40234 180.197 8.2168 179.533 8.2168C178.873 8.2168 178.389 8.40234 178.08 8.77344C177.775 9.14453 177.623 9.68164 177.623 10.3848C177.623 11.084 177.775 11.6191 178.08 11.9902C178.389 12.3613 178.873 12.5469 179.533 12.5469ZM185.574 12.5762L186.641 12.5879V13.9941H185.258C184.902 13.9824 184.625 13.9043 184.426 13.7598C184.227 13.6152 184.084 13.4473 183.998 13.2559C183.912 13.0605 183.859 12.8867 183.84 12.7344C183.824 12.5781 183.816 12.4922 183.816 12.4766V8.35742H183.055V7.06836H183.816V5.79688H185.328V7.06836H186.564V8.35742H185.328V12.4414C185.344 12.4648 185.359 12.4922 185.375 12.5234C185.391 12.5547 185.457 12.5723 185.574 12.5762ZM190.35 6.75781H190.355C191.059 6.75781 191.664 6.91797 192.172 7.23828C192.684 7.55859 193.076 7.99219 193.35 8.53906C193.627 9.08594 193.766 9.70117 193.766 10.3848C193.766 11.0645 193.627 11.6777 193.35 12.2246C193.076 12.7715 192.684 13.2051 192.172 13.5254C191.664 13.8457 191.057 14.0059 190.35 14.0059C189.646 14.0059 189.039 13.8457 188.527 13.5254C188.016 13.2051 187.621 12.7715 187.344 12.2246C187.07 11.6777 186.934 11.0645 186.934 10.3848C186.934 9.70117 187.07 9.08594 187.344 8.53906C187.621 7.99219 188.016 7.55859 188.527 7.23828C189.039 6.91797 189.646 6.75781 190.35 6.75781ZM190.35 12.5469H190.355C191.016 12.5469 191.498 12.3613 191.803 11.9902C192.107 11.6191 192.26 11.084 192.26 10.3848C192.26 9.68164 192.107 9.14453 191.803 8.77344C191.498 8.40234 191.014 8.2168 190.35 8.2168C189.689 8.2168 189.205 8.40234 188.896 8.77344C188.592 9.14453 188.439 9.68164 188.439 10.3848C188.439 11.084 188.592 11.6191 188.896 11.9902C189.205 12.3613 189.689 12.5469 190.35 12.5469ZM198.26 6.91602H198.805V8.38086H198.26C197.607 8.38086 197.098 8.55273 196.73 8.89648C196.363 9.24023 196.16 9.73047 196.121 10.3672V14H194.609V7.07422H196.121V8.17578C196.184 7.97656 196.295 7.78125 196.455 7.58984C196.619 7.39844 196.846 7.23828 197.135 7.10938C197.428 6.98047 197.803 6.91602 198.26 6.91602Z" fill="white"/>
<defs>
<clipPath id="clip0_3_51">
<rect width="40" height="40" fill="white" transform="translate(2 2)"/>
</clipPath>
</defs>
</svg>
