<svg width="203" height="48" viewBox="0 0 203 48" fill="none" xmlns="http://www.w3.org/2000/svg">
<g clip-path="url(#clip0_2_942)">
<path d="M22 2.82979C18.0444 2.82979 14.1776 4.00277 10.8886 6.2004C7.59961 8.39802 5.03616 11.5216 3.5224 15.1761C2.00865 18.8306 1.61258 22.852 2.38429 26.7316C3.15599 30.6112 5.06081 34.1749 7.85786 36.9719C10.6549 39.769 14.2186 41.6738 18.0982 42.4455C21.9778 43.2172 25.9991 42.8211 29.6537 41.3074C33.3082 39.7936 36.4318 37.2302 38.6294 33.9412C40.827 30.6522 42 26.7854 42 22.8298C42 17.5255 39.8929 12.4384 36.1421 8.68765C32.3914 4.93692 27.3043 2.82979 22 2.82979V2.82979ZM36.4 35.7098C35.7961 36.3855 35.1466 37.019 34.456 37.6058C30.9694 40.5433 26.559 42.1579 22 42.1658C20.8027 42.1673 19.608 42.0548 18.432 41.8298C18.096 41.7738 17.768 41.7018 17.44 41.6218C17.112 41.5418 16.784 41.4538 16.464 41.3578C13.0753 40.3276 10.0324 38.3912 7.66399 35.7578C10.4469 38.2408 13.8644 39.9025 17.536 40.5578C18.8006 40.7858 20.083 40.901 21.368 40.9018C22.5305 40.8987 23.6912 40.8078 24.84 40.6298C28.8267 40.0123 32.5572 38.2788 35.6 35.6298C37.1911 34.2388 38.5425 32.5956 39.6 30.7658C38.7888 32.5658 37.71 34.2327 36.4 35.7098ZM36.288 9.81379C35.7795 9.34953 35.2453 8.91417 34.688 8.50979C33.5177 7.67614 32.2595 6.97327 30.936 6.41379C27.2246 4.8541 23.1489 4.37167 19.176 5.02179C14.0381 5.78688 9.36491 8.42554 6.05599 12.4298C5.43452 13.185 4.87282 13.9874 4.37599 14.8298C5.69684 11.9106 7.72298 9.36568 10.272 7.42428C12.821 5.48289 15.8128 4.20593 18.9781 3.70841C22.1434 3.21088 25.3827 3.50841 28.4044 4.57419C31.4261 5.63997 34.1353 7.44055 36.288 9.81379V9.81379ZM3.09599 21.8778C3.35948 20.5 3.81739 19.1667 4.45599 17.9178C6.79999 13.3498 11.312 9.74179 16.896 8.02979C19.1391 7.33166 21.4747 6.97566 23.824 6.97379C24.512 6.97379 25.192 7.00579 25.864 7.06979C27.8313 7.24579 29.7631 7.70381 31.6 8.42979C30.2967 8.0303 28.9567 7.7623 27.6 7.62979C27.136 7.58179 26.664 7.54979 26.184 7.53379C22.1897 7.43533 18.2263 8.25648 14.6 9.93379C8.89599 12.5338 4.71999 16.8058 3.16799 21.6458L3.09599 21.8778ZM40.904 23.7818C40.7069 24.8051 40.4039 25.8051 40 26.7658C39.856 27.0938 39.704 27.4138 39.544 27.7338C37.2 32.3098 32.688 35.9178 27.104 37.6298C25.1421 38.2393 23.1088 38.5889 21.056 38.6698H20.184C17.4946 38.698 14.8249 38.2091 12.32 37.2298C14.3602 37.8382 16.479 38.1428 18.608 38.1338C22.3319 38.1052 26.0074 37.2872 29.392 35.7338C31.2825 34.8848 33.0635 33.8104 34.696 32.5338C37.5292 30.3671 39.663 27.4155 40.832 24.0458C40.832 24.0058 40.832 23.9658 40.872 23.9258C40.912 23.8858 40.896 23.8218 40.904 23.7818V23.7818ZM4.67199 30.2218C4.45238 29.4953 4.3392 28.7408 4.33599 27.9818C4.28799 23.8778 7.12799 19.1818 11.928 15.5098C15.2665 12.9384 19.1103 11.1009 23.208 10.1178C18.4914 11.5723 14.1759 14.0997 10.6 17.5018C6.26399 21.6618 4.04799 26.4138 4.67199 30.2218ZM39.328 15.4378C39.5476 16.1643 39.6608 16.9188 39.664 17.6778C39.712 21.7818 36.872 26.4778 32.072 30.1498C31.648 30.4778 31.224 30.7898 30.784 31.0858C27.7478 33.1762 24.3524 34.6894 20.768 35.5498C24.5904 34.3814 28.161 32.5093 31.296 30.0298C32.024 29.4458 32.728 28.8378 33.4 28.1898C37.736 23.9978 39.952 19.2458 39.328 15.4378ZM5.26399 30.1578C4.65599 26.5418 6.79999 21.9658 11.008 17.9258C11.8714 17.1075 12.7824 16.3409 13.736 15.6298C15.8468 14.0478 18.144 12.7313 20.576 11.7098C17.7964 13.0662 15.2174 14.7999 12.912 16.8618C11.8756 17.7901 10.9028 18.787 9.99999 19.8458C6.34399 24.1658 4.81599 28.7098 5.89599 32.0058L5.94399 32.1418C5.61097 31.5218 5.38129 30.8517 5.26399 30.1578V30.1578ZM38.464 14.4378C38.4676 14.459 38.4676 14.4806 38.464 14.5018C38.5692 14.821 38.652 15.1471 38.712 15.4778C39.32 19.0938 37.176 23.6698 32.96 27.7098C32.456 28.1978 31.92 28.6698 31.36 29.1338C28.9394 31.1121 26.2447 32.7289 23.36 33.9338C26.6677 32.3386 29.6896 30.2086 32.304 27.6298C32.904 27.0378 33.464 26.4218 34 25.7898C37.656 21.4698 39.184 16.9258 38.104 13.6298L38.056 13.4938C38.219 13.7961 38.3555 14.1119 38.464 14.4378V14.4378ZM35.8 11.9418C35.9529 12.1579 36.0893 12.3852 36.208 12.6218C37.488 15.2058 36.584 19.1978 33.808 23.3098C32.0299 25.8817 29.8721 28.1691 27.408 30.0938C28.2748 29.3165 29.0999 28.494 29.88 27.6298C31.5727 25.8237 33.0296 23.8103 34.216 21.6378C36.44 17.4778 36.808 13.7578 35.24 11.4458C35.1363 11.2883 35.0213 11.1386 34.896 10.9978C35.2415 11.267 35.546 11.585 35.8 11.9418V11.9418ZM31.456 10.0938C32.0575 10.2832 32.6058 10.6121 33.056 11.0538L33.24 11.2458C34.752 12.9578 34.784 16.0458 33.336 19.6938C32.3405 22.1134 30.9925 24.3725 29.336 26.3978C31.1285 23.9865 32.4824 21.2785 33.336 18.3978C34.264 14.8618 33.832 12.0858 32.12 10.5818C31.9161 10.3967 31.6935 10.2332 31.456 10.0938V10.0938ZM22 31.4218C21.8308 31.4523 21.6598 31.471 21.488 31.4778H21.232C20.2893 31.4741 19.3715 31.1747 18.608 30.6218V30.6218C17.6776 29.9314 16.9508 29.0027 16.504 27.9338C17.1868 29.1625 18.2471 30.1387 19.528 30.7178C20.2129 31.0122 20.9505 31.1646 21.696 31.1658C22.4261 31.1635 23.1488 31.0195 23.824 30.7418C23.4148 30.983 22.9766 31.1712 22.52 31.3018C22.368 31.3578 22.192 31.3898 22 31.4218ZM17.464 30.8298C16.6302 29.8701 16.0547 28.7137 15.792 27.4698C16.2487 28.8946 17.1379 30.1417 18.336 31.0378C19.1826 31.6599 20.2054 31.9962 21.256 31.9978C21.7373 31.9926 22.2159 31.9254 22.68 31.7978L22.88 31.7338C22.3333 32.0086 21.7433 32.1872 21.136 32.2618C20.4537 32.3382 19.7631 32.2478 19.1235 31.9984C18.4839 31.7489 17.9144 31.3479 17.464 30.8298V30.8298ZM23.864 30.1898C23.2195 30.4957 22.5171 30.6604 21.8038 30.6728C21.0905 30.6852 20.3827 30.5451 19.728 30.2618C16.648 28.9258 15.04 24.7338 16.08 20.7178C16.16 20.4218 16.248 20.1338 16.344 19.8618C16.9629 17.9607 18.3089 16.3818 20.088 15.4698C20.768 15.1565 21.5073 14.9928 22.256 14.9898H22.76C23.2652 15.0396 23.7594 15.1692 24.224 15.3738C25.0959 15.7623 25.8594 16.3583 26.448 17.1098C27.2611 18.22 27.8118 19.5002 28.0584 20.8541C28.3051 22.208 28.2413 23.6001 27.872 24.9258C27.792 25.2138 27.704 25.5018 27.608 25.7738C27.0003 27.6796 25.6629 29.2673 23.888 30.1898H23.864ZM22.72 14.1898C22.9505 14.1882 23.1807 14.207 23.408 14.2458C24.1064 14.3595 24.7691 14.6333 25.344 15.0458C25.6616 15.2815 25.9538 15.5496 26.216 15.8458C26.7298 16.4104 27.1461 17.0566 27.448 17.7578C26.7629 16.5309 25.7033 15.5553 24.424 14.9738C23.74 14.6763 23.0018 14.5238 22.256 14.5258C21.5231 14.526 20.7974 14.67 20.12 14.9498C20.5321 14.7088 20.9729 14.5207 21.432 14.3898C21.8572 14.2573 22.2988 14.1846 22.744 14.1738L22.72 14.1898ZM26.512 14.8458C27.3458 15.8055 27.9213 16.9619 28.184 18.2058C27.7273 16.781 26.8381 15.5339 25.64 14.6378C24.7929 14.0167 23.7704 13.6805 22.72 13.6778H22.368C22.0056 13.7047 21.6466 13.7663 21.296 13.8618L21.096 13.9258C21.6423 13.6499 22.2324 13.4712 22.84 13.3978C23.5261 13.3173 24.2215 13.4057 24.8656 13.6553C25.5098 13.9049 26.0832 14.3081 26.536 14.8298L26.512 14.8458ZM27.696 14.8458C28.3831 16.0716 28.7722 17.4418 28.832 18.8458C28.612 17.2538 27.937 15.7593 26.888 14.5418C26.4718 14.0703 25.9662 13.686 25.4004 13.4114C24.8346 13.1367 24.2199 12.9771 23.592 12.9418H23.344C23.16 12.9418 22.976 12.9418 22.784 12.9418L22.328 13.0218H22.232C22.8789 12.7481 23.578 12.6198 24.28 12.6458C24.9931 12.6819 25.6848 12.902 26.2876 13.2848C26.8904 13.6675 27.3839 14.1998 27.72 14.8298L27.696 14.8458ZM15.936 30.1818C15.4728 29.1347 15.2018 28.0128 15.136 26.8698C15.356 28.4617 16.031 29.9563 17.08 31.1738C17.5867 31.7487 18.2236 32.194 18.9376 32.4723C19.6516 32.7507 20.4219 32.8541 21.184 32.7738C21.368 32.7738 21.56 32.7178 21.744 32.6778C21.0942 32.9514 20.3925 33.0797 19.688 33.0538C18.9764 33.0083 18.2887 32.7796 17.6915 32.3899C17.0944 32.0002 16.6082 31.4628 16.28 30.8298C16.1517 30.6213 16.0368 30.4049 15.936 30.1818V30.1818ZM25.752 11.9578C26.5025 12.139 27.1908 12.5181 27.7451 13.0555C28.2995 13.593 28.6996 14.2692 28.904 15.0138C29.2626 16.07 29.4437 17.1784 29.44 18.2938C29.44 18.6938 29.44 19.0938 29.44 19.5258C29.4687 17.7882 29.044 16.0732 28.208 14.5498C27.8338 13.8436 27.2838 13.2458 26.6111 12.8142C25.9385 12.3826 25.1659 12.1317 24.368 12.0858H24.152C23.9575 12.0741 23.7625 12.0741 23.568 12.0858C24.2748 11.8662 25.0244 11.8223 25.752 11.9578V11.9578ZM15.096 30.6458C14.6165 29.1904 14.4475 27.6506 14.6 26.1258C14.5703 27.866 14.9949 29.5838 15.832 31.1098C16.2062 31.816 16.7562 32.4138 17.4289 32.8454C18.1015 33.277 18.8741 33.5279 19.672 33.5738C19.9381 33.5977 20.2059 33.5977 20.472 33.5738C19.7527 33.811 18.9858 33.866 18.24 33.7338C17.487 33.5486 16.7978 33.1642 16.2446 32.6208C15.6914 32.0775 15.2947 31.3953 15.096 30.6458V30.6458ZM29.816 20.6058C30.1317 18.6739 29.9864 16.6948 29.392 14.8298C28.704 12.9338 27.48 11.7578 25.856 11.4458C25.5716 11.388 25.2822 11.3585 24.992 11.3578H24.928C25.6914 11.1846 26.4873 11.2205 27.232 11.4618C28.672 11.9578 29.672 13.3738 30.032 15.4618C30.287 17.1746 30.2137 18.9204 29.816 20.6058V20.6058ZM19.064 34.3018C18.88 34.3018 18.704 34.3658 18.528 34.3818C17.9349 34.4526 17.3336 34.3897 16.768 34.1978C15.32 33.7018 14.328 32.2858 13.968 30.1978C13.7099 28.4744 13.7832 26.7176 14.184 25.0218C13.8644 26.9641 14.0097 28.9545 14.608 30.8298C15.296 32.7258 16.52 33.9018 18.144 34.2138L18.368 34.2538C18.5986 34.2862 18.8311 34.3023 19.064 34.3018ZM15.28 34.5418C13.792 33.7898 12.952 32.0218 12.88 29.5418C12.88 29.2218 12.88 28.8938 12.88 28.5578C13.0058 26.9795 13.3393 25.4248 13.872 23.9338C13.4586 25.4135 13.2434 26.9415 13.232 28.4778C13.232 28.6058 13.232 28.7338 13.232 28.8538C13.232 29.1098 13.248 29.3578 13.28 29.5978C13.28 29.8458 13.336 30.0778 13.376 30.3098C13.776 32.5738 14.896 34.1338 16.536 34.7018C16.8387 34.8077 17.1529 34.8776 17.472 34.9098C16.7214 34.9919 15.9626 34.8645 15.28 34.5418V34.5418ZM28.72 11.1178C30.208 11.8698 31.048 13.6378 31.12 16.1178C31.1023 18.0287 30.7587 19.9225 30.104 21.7178C30.7221 19.6438 30.8885 17.4615 30.592 15.3178C30.192 13.0538 29.072 11.4938 27.392 10.9258C27.0868 10.819 26.7698 10.7492 26.448 10.7178C27.228 10.6311 28.0165 10.77 28.72 11.1178V11.1178ZM13.76 34.7098C12.24 33.6778 11.6 31.5098 11.976 28.6138C12.2869 26.521 12.9268 24.4906 13.872 22.5978C12.9911 24.6782 12.4925 26.9004 12.4 29.1578C12.4 29.2858 12.4 29.4218 12.4 29.5498C12.4 32.2378 13.384 34.1818 15.056 35.0218C15.363 35.1765 15.6882 35.2921 16.024 35.3658C15.2206 35.3795 14.4316 35.1509 13.76 34.7098V34.7098ZM30.24 10.9498C31.76 11.9818 32.4 14.1498 32.024 17.0458C31.7142 19.1388 31.0742 21.1694 30.128 23.0618C31.0669 20.8625 31.5669 18.5009 31.6 16.1098C31.6 15.9418 31.6 15.7738 31.6 15.6138C31.456 13.2138 30.528 11.4298 28.96 10.6378C28.6493 10.4852 28.3217 10.3697 27.984 10.2938C28.7847 10.2817 29.5706 10.5102 30.24 10.9498ZM10.624 25.9658C11.6213 23.547 12.9691 21.2882 14.624 19.2618C12.8457 21.676 11.5053 24.3838 10.664 27.2618C9.73599 30.7978 10.16 33.5738 11.88 35.0778C12.0832 35.2555 12.3029 35.4136 12.536 35.5498C11.8368 35.3388 11.2088 34.9404 10.72 34.3978C9.19999 32.7018 9.19999 29.6218 10.624 25.9658ZM12.224 34.6778C10.696 33.3418 10.32 30.6778 11.184 27.4218C11.288 27.0298 11.408 26.6218 11.544 26.2378C12.1769 24.4115 13.0227 22.6661 14.064 21.0378C12.9096 23.0958 12.0786 25.3191 11.6 27.6298C11.544 27.9338 11.496 28.2298 11.464 28.5258C11.056 31.6378 11.776 33.9898 13.48 35.1418C13.7287 35.3169 13.9972 35.4619 14.28 35.5738C13.5281 35.477 12.82 35.1659 12.24 34.6778H12.224ZM31.76 10.9818C33.28 12.3178 33.664 14.9818 32.8 18.2378C32.1637 20.5025 31.193 22.6596 29.92 24.6378C31.2538 22.32 32.1487 19.7761 32.56 17.1338C32.968 14.0218 32.248 11.6698 30.544 10.5178C30.2926 10.3449 30.0246 10.1975 29.744 10.0778C30.4875 10.1839 31.1862 10.4972 31.76 10.9818V10.9818ZM8.55999 32.2938C8.55999 32.1258 8.48799 31.9498 8.45599 31.7738C8.42399 31.5978 8.39999 31.4138 8.39999 31.2298C8.26399 29.2778 8.91199 26.8778 10.296 24.2698C11.6987 21.7176 13.4697 19.3859 15.552 17.3498C13.8085 19.2475 12.3114 21.3574 11.096 23.6298C10.7259 24.331 10.3948 25.0521 10.104 25.7898C8.57599 29.6458 8.64799 32.9338 10.304 34.8058C10.4686 34.9931 10.6478 35.167 10.84 35.3258C10.1921 34.998 9.64074 34.5072 9.23999 33.9018C8.9113 33.413 8.67537 32.868 8.54399 32.2938H8.55999ZM35.408 13.0938C36.024 15.2218 35.456 18.1418 33.736 21.3658C33.488 21.8218 33.232 22.2698 32.936 22.7258C31.668 24.7599 30.1672 26.6392 28.464 28.3258C30.2029 26.4222 31.6947 24.3069 32.904 22.0298C33.2741 21.3285 33.6052 20.6074 33.896 19.8698C35.424 16.0138 35.352 12.7258 33.696 10.8538C33.5306 10.6645 33.3486 10.4904 33.152 10.3338C33.8009 10.66 34.3527 11.1511 34.752 11.7578C35.0354 12.1747 35.2514 12.6337 35.392 13.1178L35.408 13.0938ZM10.216 22.3498C11.994 19.7779 14.1519 17.4905 16.616 15.5658C14.0193 17.8147 11.8086 20.4739 10.072 23.4378C9.95999 23.6298 9.85599 23.8138 9.75999 24.0058C7.59999 28.1658 7.19199 31.8858 8.75999 34.1978C8.86561 34.3564 8.98048 34.5087 9.10399 34.6538C8.55314 34.2246 8.10493 33.678 7.79199 33.0538C6.51199 30.4538 7.41599 26.4618 10.216 22.3498ZM36.552 12.0458C36.8802 12.4396 37.1496 12.8788 37.352 13.3498C37.4216 13.5092 37.483 13.6721 37.536 13.8378C38.56 16.9338 37.064 21.2698 33.536 25.4378C31.268 28.0741 28.5846 30.3223 25.592 32.0938C28.9855 29.8383 31.9268 26.9676 34.264 23.6298C37.2 19.2858 38.12 15.1818 36.72 12.3658C36.672 12.2618 36.608 12.1498 36.552 12.0458ZM6.45599 31.8218C5.43199 28.7258 6.92799 24.3898 10.456 20.2218C12.7254 17.59 15.4053 15.3424 18.392 13.5658C15.0055 15.8244 12.07 18.6948 9.73599 22.0298C6.79999 26.3738 5.87999 30.4778 7.27999 33.2938C7.32799 33.3978 7.39199 33.5098 7.44799 33.6138C7.00266 33.0875 6.66556 32.4786 6.45599 31.8218V31.8218ZM40.272 17.7978C40.3135 18.1188 40.3348 18.4421 40.336 18.7658C40.3497 19.328 40.3122 19.8903 40.224 20.4458C39.552 24.9018 36.024 29.4618 30.784 32.6458C26.8878 35.0243 22.4622 36.3987 17.904 36.6458C23.199 35.9669 28.2169 33.8873 32.44 30.6218C33.7614 29.6071 34.983 28.4686 36.088 27.2218C36.32 26.9578 36.544 26.6938 36.76 26.4218L37.072 26.0218C38.9958 23.6962 40.1181 20.812 40.272 17.7978ZM3.77599 25.2298C4.44799 20.7578 7.97599 16.1978 13.2 13.0138C17.0847 10.6357 21.4999 9.26109 26.048 9.01379C24.6377 9.17398 23.2416 9.44142 21.872 9.81379C18.1496 10.8889 14.6643 12.6587 11.6 15.0298C11.296 15.2698 10.992 15.5098 10.704 15.7498C6.30399 19.4138 3.73599 23.8698 3.72799 27.8618C3.62594 26.9863 3.64209 26.101 3.77599 25.2298V25.2298ZM40.24 23.8218C38.736 28.4938 34.688 32.6218 29.128 35.1578C28.984 35.2325 28.84 35.2965 28.696 35.3498C25.4716 36.7596 21.9911 37.4894 18.472 37.4938C17.3175 37.4956 16.1647 37.4073 15.024 37.2298C15.488 37.2725 15.952 37.2965 16.416 37.3018H16.888C21.9107 37.2379 26.8228 35.8171 31.104 33.1898C36.496 29.9098 40.128 25.1898 40.832 20.5658C40.7818 21.6728 40.5827 22.768 40.24 23.8218V23.8218ZM19.28 5.66979C20.3939 5.49183 21.52 5.40089 22.648 5.39779H23.448C27.2188 5.53613 30.875 6.73084 34 8.84579C32.2827 7.9073 30.4361 7.22795 28.52 6.82979C24.5986 6.01378 20.5337 6.21483 16.712 7.41379C10.96 9.22979 6.28799 12.9098 3.88799 17.6298C3.72799 17.9498 3.57599 18.2698 3.43999 18.5898C4.10956 16.496 5.16807 14.5472 6.55999 12.8458C9.76815 8.96483 14.2992 6.40863 19.28 5.66979V5.66979ZM3.75999 21.8378C5.26399 17.1658 9.31199 13.0378 14.872 10.5018C18.173 8.98594 21.7596 8.19225 25.392 8.17379C26.5542 8.16892 27.7151 8.25451 28.864 8.42979C27.2288 8.30769 25.5853 8.35595 23.96 8.57379C20.0402 9.08992 16.2717 10.4197 12.896 12.4778C7.50399 15.7578 3.87199 20.4778 3.16799 25.1018C3.21747 23.9921 3.41661 22.8942 3.75999 21.8378V21.8378ZM24.72 39.9898C19.5359 40.8612 14.2157 39.6945 9.87199 36.7338C13.0298 38.4688 16.5811 39.3614 20.184 39.3258C22.5924 39.3199 24.9866 38.9559 27.288 38.2458C33.04 36.4698 37.688 32.7498 40.088 28.0298C40.232 27.7578 40.36 27.4778 40.48 27.2298C39.6462 29.7425 38.2634 32.0381 36.432 33.9498C33.2904 37.1854 29.1778 39.3063 24.72 39.9898Z" fill="black"/>
</g>
<path d="M67.1562 27.7126H67.8945L66.9277 33.8298H50.1406V33.0915H51.4414C52.0391 33.0915 52.3379 32.7985 52.3379 32.2126V10.1521C52.3262 9.58955 52.0273 9.3083 51.4414 9.3083H50.1406V8.57002H66.9277L67.8945 14.6872H67.1562C66.5 11.1013 65.123 9.3083 63.0254 9.3083H57.0664C56.4688 9.32002 56.1699 9.61299 56.1699 10.1872V19.7849H62.6738C63.2012 19.7146 63.5996 19.4157 63.8691 18.8884C64.1387 18.3493 64.2734 17.5349 64.2734 16.445H64.9941V23.863L64.2734 23.8454C64.2734 22.7673 64.1387 21.9587 63.8691 21.4196C63.5996 20.8806 63.2012 20.5817 62.6738 20.5231H56.1699V32.2126C56.1699 32.7985 56.4688 33.0915 57.0664 33.0915H63.0254C65.1348 33.0915 66.5117 31.2985 67.1562 27.7126ZM69.2129 17.2536V16.6911L74.2578 14.9509H74.9961V29.4704C75.0078 31.8845 75.6641 33.1091 76.9648 33.1442C78.4297 33.0974 80.1465 32.4235 82.1152 31.1228V18.0798C82.0918 17.529 81.8164 17.2536 81.2891 17.2536H80.1641V16.7087L85.209 14.9509H85.9473V32.1774C85.959 32.7634 86.2578 33.0564 86.8438 33.0564H88.1445V33.7946H83.1875C82.4727 33.7946 82.1152 33.4255 82.1152 32.6872V31.8962C79.8652 33.3845 77.7031 34.1462 75.6289 34.1814C72.6758 34.1696 71.1875 32.7399 71.1641 29.8923V18.0271C71.1172 17.5231 70.8359 17.2653 70.3203 17.2536H69.2129ZM89.7441 33.0915H91.0273C91.625 33.0915 91.9238 32.7575 91.9238 32.0896V18.4841C91.9121 17.9333 91.6367 17.6579 91.0977 17.6579H89.9727V17.0251L95.0352 15.3552H95.7559V17.0778C96.4238 15.9411 97.3027 15.361 98.3926 15.3376C98.8496 15.3376 99.4648 15.4782 100.238 15.7595C101.023 16.0407 101.574 16.1814 101.891 16.1814C102.137 16.1579 102.26 15.906 102.26 15.4255L102.998 15.4079L103.789 21.6306H103.139C101.404 18.1032 99.7227 16.2927 98.0938 16.1989C97.1562 16.2224 96.377 16.9899 95.7559 18.5017V32.2126C95.7559 32.7985 96.0605 33.0915 96.6699 33.0915H97.9531V33.8298H89.7441V33.0915ZM113.914 15.7067C111.453 15.7771 110.105 18.197 109.871 22.9665H117.676C117.582 18.1501 116.328 15.7302 113.914 15.7067ZM113.879 14.9509C116.293 14.986 118.221 15.8005 119.662 17.3942C121.115 18.9763 121.842 21.0856 121.842 23.7224L109.871 23.6872C110.047 29.9099 111.594 33.1442 114.512 33.3903C117.254 33.3552 119.34 31.6501 120.77 28.2751H121.578C120.102 32.2126 117.541 34.1814 113.896 34.1814C112.408 34.1696 111.031 33.736 109.766 32.8806C108.512 32.0251 107.498 30.8708 106.725 29.4177C105.951 27.9528 105.564 26.3356 105.564 24.5661C105.564 22.7966 105.945 21.1853 106.707 19.7321C107.48 18.279 108.494 17.1189 109.748 16.2517C111.014 15.3845 112.391 14.9509 113.879 14.9509ZM123.564 33.0915H124.848C125.457 33.0915 125.762 32.7985 125.762 32.2126V10.697C125.703 10.1931 125.422 9.94112 124.918 9.94112H123.811V9.32588L128.855 7.65596H129.594V23.6345L136.854 16.6032C137.076 16.3806 137.105 16.2341 136.941 16.1638C136.777 16.0817 136.414 16.0407 135.852 16.0407H134.674V15.3024H141.406V16.0407L139.754 16.0583C139.473 16.0583 139.186 16.111 138.893 16.2165C138.6 16.3103 138.236 16.5564 137.803 16.9548L133.918 20.6286L139.49 31.4743C139.83 32.0134 140.135 32.4177 140.404 32.6872C140.686 32.945 141.049 33.0798 141.494 33.0915H142.777V33.8298H137.82C137.27 33.8298 136.848 33.7478 136.555 33.5837C136.273 33.4079 136.004 33.0739 135.746 32.5817L131.633 24.3024C131.434 24.0095 131.229 23.863 131.018 23.863C130.854 23.863 130.707 23.9099 130.578 24.0036C130.449 24.0974 130.291 24.2321 130.104 24.4079L129.594 24.9177V32.2126C129.594 32.7985 129.893 33.0915 130.49 33.0915H131.773V33.8298H123.564V33.0915ZM151.057 32.6872C151.842 32.6872 152.551 32.4763 153.184 32.0544C153.828 31.6208 154.291 30.9821 154.572 30.1384V23.6872C150.096 23.9216 147.816 25.738 147.734 29.1364C147.758 31.4919 148.865 32.6755 151.057 32.6872ZM151.812 14.9333C156.09 14.9333 158.234 16.6208 158.246 19.9958V32.2302C158.246 32.7927 158.539 33.0739 159.125 33.0739H160.32V33.8298H155.539C154.906 33.8181 154.584 33.4489 154.572 32.7224V31.5798C154.244 32.1306 153.729 32.6814 153.025 33.2321C152.334 33.7712 151.238 34.0876 149.738 34.1814C145.848 34.1696 143.885 32.4646 143.85 29.0661C143.896 24.988 147.471 22.9489 154.572 22.9489V20.0661C154.561 17.1716 153.518 15.7126 151.443 15.6892C149.135 15.6892 147.125 17.4528 145.414 20.9802L144.641 20.9626L145.836 15.3024H146.592C146.592 15.6657 146.668 15.8591 146.82 15.8825C147.043 15.8825 147.635 15.7302 148.596 15.4255C149.557 15.1208 150.629 14.9567 151.812 14.9333Z" fill="black"/>
<rect x="163" y="2.82979" width="38" height="16" rx="4" fill="black"/>
<path d="M170.252 12.5915L173.516 5.78877H174.852V14.8825H173.398V9.62666L170.92 14.8825H169.584L167.117 9.66768V14.8825H165.664V5.78877H167L170.252 12.5915ZM179.533 7.5876H179.539C180.242 7.5876 180.848 7.74776 181.355 8.06807C181.867 8.38838 182.26 8.82198 182.533 9.36885C182.811 9.91573 182.949 10.531 182.949 11.2146C182.949 11.8942 182.811 12.5075 182.533 13.0544C182.26 13.6013 181.867 14.0349 181.355 14.3552C180.848 14.6755 180.24 14.8356 179.533 14.8356C178.83 14.8356 178.223 14.6755 177.711 14.3552C177.199 14.0349 176.805 13.6013 176.527 13.0544C176.254 12.5075 176.117 11.8942 176.117 11.2146C176.117 10.531 176.254 9.91573 176.527 9.36885C176.805 8.82198 177.199 8.38838 177.711 8.06807C178.223 7.74776 178.83 7.5876 179.533 7.5876ZM179.533 13.3767H179.539C180.199 13.3767 180.682 13.1911 180.986 12.82C181.291 12.4489 181.443 11.9138 181.443 11.2146C181.443 10.5114 181.291 9.97432 180.986 9.60323C180.682 9.23213 180.197 9.04659 179.533 9.04659C178.873 9.04659 178.389 9.23213 178.08 9.60323C177.775 9.97432 177.623 10.5114 177.623 11.2146C177.623 11.9138 177.775 12.4489 178.08 12.82C178.389 13.1911 178.873 13.3767 179.533 13.3767ZM185.574 13.406L186.641 13.4177V14.8239H185.258C184.902 14.8122 184.625 14.7341 184.426 14.5896C184.227 14.445 184.084 14.2771 183.998 14.0856C183.912 13.8903 183.859 13.7165 183.84 13.5642C183.824 13.4079 183.816 13.322 183.816 13.3064V9.18721H183.055V7.89815H183.816V6.62666H185.328V7.89815H186.564V9.18721H185.328V13.2712C185.344 13.2946 185.359 13.322 185.375 13.3532C185.391 13.3845 185.457 13.4021 185.574 13.406ZM190.35 7.5876H190.355C191.059 7.5876 191.664 7.74776 192.172 8.06807C192.684 8.38838 193.076 8.82198 193.35 9.36885C193.627 9.91573 193.766 10.531 193.766 11.2146C193.766 11.8942 193.627 12.5075 193.35 13.0544C193.076 13.6013 192.684 14.0349 192.172 14.3552C191.664 14.6755 191.057 14.8356 190.35 14.8356C189.646 14.8356 189.039 14.6755 188.527 14.3552C188.016 14.0349 187.621 13.6013 187.344 13.0544C187.07 12.5075 186.934 11.8942 186.934 11.2146C186.934 10.531 187.07 9.91573 187.344 9.36885C187.621 8.82198 188.016 8.38838 188.527 8.06807C189.039 7.74776 189.646 7.5876 190.35 7.5876ZM190.35 13.3767H190.355C191.016 13.3767 191.498 13.1911 191.803 12.82C192.107 12.4489 192.26 11.9138 192.26 11.2146C192.26 10.5114 192.107 9.97432 191.803 9.60323C191.498 9.23213 191.014 9.04659 190.35 9.04659C189.689 9.04659 189.205 9.23213 188.896 9.60323C188.592 9.97432 188.439 10.5114 188.439 11.2146C188.439 11.9138 188.592 12.4489 188.896 12.82C189.205 13.1911 189.689 13.3767 190.35 13.3767ZM198.26 7.7458H198.805V9.21065H198.26C197.607 9.21065 197.098 9.38252 196.73 9.72627C196.363 10.07 196.16 10.5603 196.121 11.197V14.8298H194.609V7.90401H196.121V9.00557C196.184 8.80635 196.295 8.61104 196.455 8.41963C196.619 8.22823 196.846 8.06807 197.135 7.93916C197.428 7.81026 197.803 7.7458 198.26 7.7458Z" fill="white"/>
<defs>
<clipPath id="clip0_2_942">
<rect width="40" height="40" fill="white" transform="translate(2 2.82979)"/>
</clipPath>
</defs>
</svg>
