<svg width="397" height="217" viewBox="0 0 397 217" fill="none" xmlns="http://www.w3.org/2000/svg">
<path d="M101.527 164.375C144.053 164.375 178.527 129.901 178.527 87.3752C178.527 44.8493 144.053 10.3752 101.527 10.3752C59.0014 10.3752 24.5273 44.8493 24.5273 87.3752C24.5273 129.901 59.0014 164.375 101.527 164.375Z" fill="#EFF3FA"/>
<path d="M382.927 171.875H17.4272L74.3272 95.4752L98.7272 63.0752L120.027 86.1752L124.127 90.5752L169.927 27.1752L189.527 0.0751953L204.827 22.3752L256.927 98.2752L277.927 74.2752L288.627 61.9752L297.727 72.8752L382.927 171.875Z" fill="#D9E0EC"/>
<path d="M98.7272 63.0752L97.7272 171.875H17.4272L74.3272 95.4752L98.7272 63.0752Z" fill="#E8EDF8"/>
<path d="M189.527 0.0751953L186.227 160.475L124.127 90.5752L189.527 0.0751953Z" fill="#E8EDF8"/>
<path d="M290.527 156.175L256.927 98.2751L288.627 61.9751L290.527 156.175Z" fill="#E8EDF8"/>
<path d="M2.02734 171.875H97.7273H382.927H394.627" stroke="#CDD6E1" stroke-width="3" stroke-miterlimit="10" stroke-linecap="round" stroke-linejoin="round"/>
<path d="M208.427 188.075H233.827" stroke="#CDD6E1" stroke-width="3" stroke-miterlimit="10" stroke-linecap="round" stroke-linejoin="round"/>
<path d="M278.427 188.075H303.827" stroke="#CDD6E1" stroke-width="3" stroke-miterlimit="10" stroke-linecap="round" stroke-linejoin="round"/>
<path d="M262.927 188.075H268.327" stroke="#CDD6E1" stroke-width="3" stroke-miterlimit="10" stroke-linecap="round" stroke-linejoin="round"/>
<path d="M94.2273 188.075H185.227" stroke="#CDD6E1" stroke-width="3" stroke-miterlimit="10" stroke-linecap="round" stroke-linejoin="round"/>
<path d="M55.8274 188.075H67.3274" stroke="#CDD6E1" stroke-width="3" stroke-miterlimit="10" stroke-linecap="round" stroke-linejoin="round"/>
<path d="M348.127 188.075H380.127" stroke="#CDD6E1" stroke-width="3" stroke-miterlimit="10" stroke-linecap="round" stroke-linejoin="round"/>
<path d="M7.32739 188.075H38.4274" stroke="#CDD6E1" stroke-width="3" stroke-miterlimit="10" stroke-linecap="round" stroke-linejoin="round"/>
<path d="M32.1274 201.575H132.627" stroke="#CDD6E1" stroke-width="3" stroke-miterlimit="10" stroke-linecap="round" stroke-linejoin="round"/>
<path d="M192.027 201.575H262.927" stroke="#CDD6E1" stroke-width="3" stroke-miterlimit="10" stroke-linecap="round" stroke-linejoin="round"/>
<path d="M299.427 201.575H370.327" stroke="#CDD6E1" stroke-width="3" stroke-miterlimit="10" stroke-linecap="round" stroke-linejoin="round"/>
<path d="M162.427 201.575H177.927" stroke="#CDD6E1" stroke-width="3" stroke-miterlimit="10" stroke-linecap="round" stroke-linejoin="round"/>
<path d="M241.027 214.975H326.827" stroke="#CDD6E1" stroke-width="3" stroke-miterlimit="10" stroke-linecap="round" stroke-linejoin="round"/>
<path d="M151.827 214.975H208.427" stroke="#CDD6E1" stroke-width="3" stroke-miterlimit="10" stroke-linecap="round" stroke-linejoin="round"/>
<path d="M115.827 214.975H132.627" stroke="#CDD6E1" stroke-width="3" stroke-miterlimit="10" stroke-linecap="round" stroke-linejoin="round"/>
<path d="M53.1274 214.975H90.2274" stroke="#CDD6E1" stroke-width="3" stroke-miterlimit="10" stroke-linecap="round" stroke-linejoin="round"/>
<path d="M135.527 145.975C135.527 152.275 130.427 155.075 124.227 155.075C118.027 155.075 112.927 152.275 112.927 145.975C112.927 139.675 124.227 100.775 124.227 100.775C124.227 100.775 135.527 139.775 135.527 145.975Z" fill="white"/>
<path d="M124.127 134.975V170.675" stroke="#B9C0D0" stroke-width="2" stroke-miterlimit="10" stroke-linecap="round" stroke-linejoin="round"/>
<path d="M124.127 141.175L128.227 137.475" stroke="#B9C0D0" stroke-width="2" stroke-miterlimit="10" stroke-linecap="round" stroke-linejoin="round"/>
<path d="M124.127 149.675L118.227 142.675" stroke="#B9C0D0" stroke-width="2" stroke-miterlimit="10" stroke-linecap="round" stroke-linejoin="round"/>
<path d="M237.127 143.175C237.127 150.175 231.427 153.275 224.527 153.275C217.527 153.275 211.927 150.175 211.927 143.175C211.927 136.175 224.527 92.8752 224.527 92.8752C224.527 92.8752 237.127 136.275 237.127 143.175Z" fill="white"/>
<path d="M224.527 130.875V170.675" stroke="#B9C0D0" stroke-width="2" stroke-miterlimit="10" stroke-linecap="round" stroke-linejoin="round"/>
<path d="M224.527 137.875L229.027 133.675" stroke="#B9C0D0" stroke-width="2" stroke-miterlimit="10" stroke-linecap="round" stroke-linejoin="round"/>
<path d="M224.527 147.375L217.927 139.475" stroke="#B9C0D0" stroke-width="2" stroke-miterlimit="10" stroke-linecap="round" stroke-linejoin="round"/>
<path d="M278.127 153.875C278.127 158.175 274.627 160.075 270.427 160.075C266.127 160.075 262.727 158.175 262.727 153.875C262.727 149.575 270.427 123.075 270.427 123.075C270.427 123.075 278.127 149.575 278.127 153.875Z" fill="white"/>
<path d="M270.327 146.375V170.675" stroke="#B9C0D0" stroke-width="2" stroke-miterlimit="10" stroke-linecap="round" stroke-linejoin="round"/>
<path d="M270.327 150.575L273.127 148.075" stroke="#B9C0D0" stroke-width="2" stroke-miterlimit="10" stroke-linecap="round" stroke-linejoin="round"/>
<path d="M270.327 156.375L266.327 151.575" stroke="#B9C0D0" stroke-width="2" stroke-miterlimit="10" stroke-linecap="round" stroke-linejoin="round"/>
<path d="M319.427 149.075C319.427 154.575 315.027 156.975 309.527 156.975C304.027 156.975 299.627 154.575 299.627 149.075C299.627 143.575 309.527 109.475 309.527 109.475C309.527 109.475 319.427 143.575 319.427 149.075Z" fill="white"/>
<path d="M309.527 139.375V170.675" stroke="#B9C0D0" stroke-width="2" stroke-miterlimit="10" stroke-linecap="round" stroke-linejoin="round"/>
<path d="M309.527 144.775L313.027 141.575" stroke="#B9C0D0" stroke-width="2" stroke-miterlimit="10" stroke-linecap="round" stroke-linejoin="round"/>
<path d="M309.527 152.275L304.327 146.075" stroke="#B9C0D0" stroke-width="2" stroke-miterlimit="10" stroke-linecap="round" stroke-linejoin="round"/>
<path opacity="0.8" d="M125.027 91.1752L107.827 92.6752L99.8274 100.875L90.2274 99.1752L74.3274 109.075L69.3274 102.575L99.0274 63.0752L125.027 91.1752Z" fill="white"/>
<path opacity="0.6" d="M212.627 33.6752L204.527 31.8752L196.227 35.7752L189.527 34.0752L183.127 45.4752L173.127 40.7752L161.927 45.4752L160.027 41.0752L189.527 0.0751953L212.627 33.6752Z" fill="white"/>
<path opacity="0.6" d="M303.027 78.6751L294.627 85.2751L286.827 80.9751L275.827 87.3751L272.727 80.6751L289.027 61.9751L303.027 78.6751Z" fill="white"/>
<path d="M91.1273 33.4753C92.7273 33.0753 94.2273 32.9753 95.8273 32.9753C97.3273 32.9753 98.9273 33.0753 100.427 33.2753C101.927 33.4753 103.527 33.8753 105.027 34.5753C106.527 35.2753 108.027 36.2753 108.927 37.9753L107.227 37.5753L109.027 36.1753C109.727 35.7753 110.327 35.2753 110.927 34.8753C112.227 34.0753 113.627 33.3753 115.127 32.8753C116.627 32.3753 118.127 31.9753 119.627 31.7753C121.227 31.6753 122.727 31.6753 124.327 32.0753C124.627 32.1753 124.727 32.4753 124.627 32.6753C124.527 32.9753 124.327 33.0753 124.027 32.9753H123.927C122.627 32.6753 121.127 32.7753 119.727 32.9753C118.327 33.1753 116.927 33.6753 115.627 34.2753C114.327 34.8753 113.127 35.5753 111.927 36.3753C111.327 36.7753 110.727 37.2753 110.227 37.6753L108.627 39.0753C108.127 39.4753 107.527 39.3753 107.127 38.9753L107.027 39.0753L106.927 38.8753C106.527 37.7753 105.427 36.8753 104.227 36.2753C103.027 35.6753 101.627 35.1753 100.127 34.8753C98.7273 34.5753 97.2273 34.3753 95.7273 34.2753C94.2273 34.1753 92.7273 34.1753 91.4273 34.4753H91.3273C91.0273 34.5753 90.8273 34.3753 90.7273 34.0753C90.7273 33.7753 90.8273 33.4753 91.1273 33.4753Z" fill="#989FB0"/>
<path d="M46.7274 60.8752C48.3274 60.4752 49.8274 60.3752 51.4274 60.3752C52.9274 60.3752 54.5274 60.4752 56.0274 60.6752C57.5274 60.8752 59.1274 61.2752 60.6274 61.9752C62.1274 62.6752 63.6274 63.6752 64.5274 65.3752L62.8274 64.9752L64.6274 63.5752C65.3274 63.1752 65.9274 62.6752 66.5274 62.2752C67.8274 61.4752 69.2274 60.7752 70.7274 60.2752C72.2274 59.7752 73.7274 59.3752 75.2274 59.1752C76.8274 59.0752 78.3274 59.0752 79.9274 59.4752C80.2274 59.5752 80.3274 59.8752 80.2274 60.0752C80.1274 60.3752 79.9274 60.4752 79.6274 60.3752H79.5274C78.2274 60.0752 76.7274 60.1752 75.3274 60.3752C73.9274 60.5752 72.5274 61.0752 71.2274 61.6752C69.9274 62.2752 68.7274 62.9752 67.5274 63.7752C66.9274 64.1752 66.3274 64.6752 65.8274 65.0752L64.2274 66.4752C63.7274 66.8752 63.1274 66.7752 62.7274 66.3752L62.6274 66.2752L62.5274 66.0752C62.1274 64.9752 61.0274 64.0752 59.8274 63.4752C58.6274 62.8752 57.2274 62.3752 55.7274 62.0752C54.3274 61.7752 52.8274 61.5752 51.3274 61.4752C49.8274 61.3752 48.3274 61.3752 47.0274 61.6752H46.9274C46.6274 61.7752 46.4274 61.5752 46.3274 61.2752C46.3274 61.1752 46.5274 60.8752 46.7274 60.8752Z" fill="#989FB0"/>
<path d="M101.927 56.9753C103.527 56.5753 105.027 56.4753 106.627 56.4753C108.127 56.4753 109.727 56.5753 111.227 56.7753C112.727 56.9753 114.327 57.3753 115.827 58.0753C117.327 58.7753 118.827 59.7753 119.727 61.4753L118.027 61.0753L119.827 59.6753C120.527 59.2753 121.127 58.7753 121.727 58.3753C123.027 57.5753 124.427 56.8753 125.927 56.3753C127.427 55.8753 128.927 55.4753 130.427 55.2753C132.027 55.1753 133.527 55.1753 135.127 55.5753C135.427 55.6753 135.527 55.9753 135.427 56.1753C135.327 56.4753 135.127 56.5753 134.827 56.4753H134.727C133.427 56.1753 131.927 56.2753 130.527 56.4753C129.127 56.6753 127.727 57.1753 126.427 57.7753C125.127 58.3753 123.927 59.0753 122.727 59.8753C122.127 60.2753 121.527 60.7753 121.027 61.1753L119.427 62.5753C118.927 62.9753 118.327 62.8753 117.927 62.4753L117.827 62.3753L117.727 62.1753C117.327 61.0753 116.227 60.1753 115.027 59.5753C113.827 58.9753 112.427 58.4753 110.927 58.1753C109.527 57.8753 108.027 57.6753 106.527 57.5753C105.027 57.4753 103.527 57.4753 102.227 57.7753H102.127C101.827 57.8753 101.627 57.6753 101.527 57.3753C101.527 57.2753 101.627 56.9753 101.927 56.9753Z" fill="#989FB0"/>
<g filter="url(#filter0_d)">
<path d="M262.727 58.3426C262.727 64.0976 258.073 68.7516 252.268 68.7516C252.168 68.7516 251.317 68.7516 245.062 68.7516C240.708 68.7516 233.752 68.7516 222.643 68.7516H217.338C210.382 68.9017 204.827 63.3469 204.827 56.6411C204.827 49.8853 210.432 44.2805 217.488 44.6308C223.544 25.7145 251.267 28.3668 253.619 47.9336C258.824 48.5842 262.727 52.988 262.727 58.3426Z" fill="url(#paint0_linear)"/>
</g>
<path d="M252.268 68.7518C258.023 68.7518 262.727 64.0978 262.727 58.3428C262.727 52.5878 258.023 47.9338 252.268 47.9338C246.513 47.9338 241.809 52.5878 241.809 58.3428C241.809 64.0978 246.513 68.7518 252.268 68.7518Z" fill="url(#paint1_linear)"/>
<path d="M235.203 68.8517C245.462 68.8517 253.819 60.5446 253.819 50.2857C253.819 40.0269 245.462 31.7197 235.203 31.7197C224.945 31.7197 216.587 40.0269 216.587 50.2857C216.587 60.5446 224.895 68.8517 235.203 68.8517Z" fill="url(#paint2_linear)"/>
<g filter="url(#filter1_d)">
<path d="M171.871 76.6539C171.871 80.9918 168.363 84.4999 163.987 84.4999C163.912 84.4999 163.27 84.4999 158.555 84.4999C155.274 84.4999 150.03 84.4999 141.656 84.4999H137.658C132.415 84.6131 128.228 80.426 128.228 75.3714C128.228 70.279 132.452 66.0543 137.771 66.3183C142.335 52.0597 163.233 54.0589 165.006 68.8079C168.929 69.2983 171.871 72.6177 171.871 76.6539Z" fill="url(#paint3_linear)"/>
</g>
<path d="M163.987 84.4999C168.325 84.4999 171.871 80.9918 171.871 76.6539C171.871 72.3159 168.325 68.8079 163.987 68.8079C159.649 68.8079 156.104 72.3159 156.104 76.6539C156.104 80.9918 159.649 84.4999 163.987 84.4999Z" fill="url(#paint4_linear)"/>
<path d="M151.124 84.5753C158.857 84.5753 165.157 78.3136 165.157 70.5807C165.157 62.8479 158.857 56.5862 151.124 56.5862C143.391 56.5862 137.092 62.8479 137.092 70.5807C137.092 78.3136 143.354 84.5753 151.124 84.5753Z" fill="url(#paint5_linear)"/>
<defs>
<filter id="filter0_d" x="182.827" y="20.7649" width="101.9" height="80.9897" filterUnits="userSpaceOnUse" color-interpolation-filters="sRGB">
<feFlood flood-opacity="0" result="BackgroundImageFix"/>
<feColorMatrix in="SourceAlpha" type="matrix" values="0 0 0 0 0 0 0 0 0 0 0 0 0 0 0 0 0 0 127 0"/>
<feOffset dy="11"/>
<feGaussianBlur stdDeviation="11"/>
<feColorMatrix type="matrix" values="0 0 0 0 0.397708 0 0 0 0 0.47749 0 0 0 0 0.575 0 0 0 0.27 0"/>
<feBlend mode="normal" in2="BackgroundImageFix" result="effect1_dropShadow"/>
<feBlend mode="normal" in="SourceGraphic" in2="effect1_dropShadow" result="shape"/>
</filter>
<filter id="filter1_d" x="106.228" y="45.6204" width="87.6434" height="71.8818" filterUnits="userSpaceOnUse" color-interpolation-filters="sRGB">
<feFlood flood-opacity="0" result="BackgroundImageFix"/>
<feColorMatrix in="SourceAlpha" type="matrix" values="0 0 0 0 0 0 0 0 0 0 0 0 0 0 0 0 0 0 127 0"/>
<feOffset dy="11"/>
<feGaussianBlur stdDeviation="11"/>
<feColorMatrix type="matrix" values="0 0 0 0 0.397708 0 0 0 0 0.47749 0 0 0 0 0.575 0 0 0 0.27 0"/>
<feBlend mode="normal" in2="BackgroundImageFix" result="effect1_dropShadow"/>
<feBlend mode="normal" in="SourceGraphic" in2="effect1_dropShadow" result="shape"/>
</filter>
<linearGradient id="paint0_linear" x1="233.777" y1="47.0504" x2="233.758" y2="69.1533" gradientUnits="userSpaceOnUse">
<stop stop-color="white"/>
<stop offset="0.9964" stop-color="#ECF0F5"/>
</linearGradient>
<linearGradient id="paint1_linear" x1="240.696" y1="45.6928" x2="249.968" y2="55.8334" gradientUnits="userSpaceOnUse">
<stop stop-color="#BCCBE1"/>
<stop offset="0.9942" stop-color="white" stop-opacity="0"/>
</linearGradient>
<linearGradient id="paint2_linear" x1="214.844" y1="41.7663" x2="229.457" y2="47.4849" gradientUnits="userSpaceOnUse">
<stop stop-color="#E2E8F0"/>
<stop offset="0.9942" stop-color="white" stop-opacity="0"/>
</linearGradient>
<linearGradient id="paint3_linear" x1="150.049" y1="68.1422" x2="150.035" y2="84.8027" gradientUnits="userSpaceOnUse">
<stop stop-color="white"/>
<stop offset="0.9964" stop-color="#ECF0F5"/>
</linearGradient>
<linearGradient id="paint4_linear" x1="155.265" y1="67.1186" x2="162.253" y2="74.7623" gradientUnits="userSpaceOnUse">
<stop stop-color="#BCCBE1"/>
<stop offset="0.9942" stop-color="white" stop-opacity="0"/>
</linearGradient>
<linearGradient id="paint5_linear" x1="135.778" y1="64.159" x2="146.793" y2="68.4695" gradientUnits="userSpaceOnUse">
<stop stop-color="#E2E8F0"/>
<stop offset="0.9942" stop-color="white" stop-opacity="0"/>
</linearGradient>
</defs>
</svg>
