<svg width="96" height="96" viewBox="0 0 96 96" fill="none" xmlns="http://www.w3.org/2000/svg">
<path d="M45.0709 33.7724L33.7849 45.0575C32.164 46.6783 32.164 49.3062 33.7849 50.927L45.0709 62.2121C46.6918 63.8329 49.3198 63.8329 50.9408 62.2121L62.2267 50.927C63.8476 49.3062 63.8476 46.6783 62.2267 45.0575L50.9408 33.7724C49.3198 32.1516 46.6918 32.1516 45.0709 33.7724Z" fill="#1D1A27"/>
<path d="M48.0032 91.9998C45.1058 92.01 42.2353 91.4449 39.5581 90.337C36.8809 89.2292 34.4505 87.6007 32.4077 85.5461L30.0084 83.147L40.2414 72.9148L42.6407 75.3139C44.0591 76.7317 45.9826 77.5281 47.9882 77.5281C49.9937 77.5281 51.9172 76.7317 53.3356 75.3139L75.3072 53.3439C76.7218 51.9251 77.5161 50.0033 77.5161 47.9999C77.5161 45.9964 76.7218 44.0747 75.3072 42.6558L64.3364 31.6979L74.5694 21.4656L85.5582 32.4536C89.6833 36.588 92 42.1897 92 48.0299C92 53.87 89.6833 59.4717 85.5582 63.6062L63.5806 85.5761C61.5379 87.6237 59.1093 89.2457 56.4354 90.3483C53.7615 91.451 50.8955 92.0123 48.0032 91.9998Z" fill="#1D1A27"/>
<path d="M21.419 74.5642L10.4542 63.5762C8.40799 61.531 6.78484 59.1027 5.67742 56.4301C4.56999 53.7575 4 50.8929 4 47.9999C4 45.107 4.56999 42.2424 5.67742 39.5698C6.78484 36.8971 8.40799 34.4689 10.4542 32.4236L32.4257 10.4537C34.4711 8.40767 36.8996 6.78463 39.5724 5.67729C42.2452 4.56995 45.11 4 48.0032 4C50.8964 4 53.7612 4.56995 56.434 5.67729C59.1068 6.78463 61.5353 8.40767 63.5806 10.4537L65.9799 12.8528L55.7469 23.0851L53.3476 20.6859C51.9292 19.2681 50.0058 18.4717 48.0002 18.4717C45.9946 18.4717 44.0712 19.2681 42.6528 20.6859L20.6812 42.6559C19.9793 43.3577 19.4225 44.1908 19.0427 45.1077C18.6628 46.0247 18.4673 47.0074 18.4673 47.9999C18.4673 48.9924 18.6628 49.9752 19.0427 50.8921C19.4225 51.8091 19.9793 52.6422 20.6812 53.344L31.67 64.3319L21.419 74.5642Z" fill="#1D1A27"/>
</svg>
